<?xml version="1.0" standalone="no"?>
<svg xmlns="http://www.w3.org/2000/svg" viewBox="0 0 145 70" width="145" height="70"><g fill="#ff5700" color="#ff5700" transform="translate(56.592 0) scale(0.4166667) "><svg width="75.23" height="96.0" x="0.0" y="0.0" viewBox="0 0 75.23 96"><title></title><g data-name="Layer 2"><g><path d="M37.62,27.23a3.46,3.46,0,1,1-3.47,3.46,3.46,3.46,0,0,1,3.47-3.46m0-3a6.46,6.46,0,1,0,6.46,6.46,6.47,6.47,0,0,0-6.46-6.46Z"></path><circle cx="54.92" cy="30.69" r="3.46"></circle><circle cx="20.31" cy="30.69" r="3.46"></circle><path d="M37.62,44.54A3.46,3.46,0,1,1,34.15,48a3.46,3.46,0,0,1,3.47-3.46m0-3A6.46,6.46,0,1,0,44.08,48a6.47,6.47,0,0,0-6.46-6.46Z"></path><path d="M54.92,44.54A3.46,3.46,0,1,1,51.46,48a3.46,3.46,0,0,1,3.46-3.46m0-3A6.46,6.46,0,1,0,61.38,48a6.47,6.47,0,0,0-6.46-6.46Z"></path><circle cx="20.31" cy="48" r="3.46"></circle><circle cx="37.62" cy="65.31" r="3.46"></circle><path d="M54.92,61.85a3.46,3.46,0,1,1-3.46,3.46,3.46,3.46,0,0,1,3.46-3.46m0-3a6.46,6.46,0,1,0,6.46,6.46,6.46,6.46,0,0,0-6.46-6.46Z"></path><path d="M20.31,61.85a3.46,3.46,0,1,1-3.46,3.46,3.46,3.46,0,0,1,3.46-3.46m0-3a6.46,6.46,0,1,0,6.46,6.46,6.46,6.46,0,0,0-6.46-6.46Z"></path><path d="M72.23,65.77a3,3,0,0,0-3,3v6.92a7.4,7.4,0,0,1-7.38,7.39H51.78l1.8-1.81A3,3,0,0,0,49.34,77l-9,9,9,9a3,3,0,1,0,4.24-4.24l-1.8-1.8H61.85A13.4,13.4,0,0,0,75.23,75.69V68.77A3,3,0,0,0,72.23,65.77Z"></path><path d="M25.89.88a3,3,0,0,0-4.24,4.24l1.8,1.8H13.38A13.4,13.4,0,0,0,0,20.31v6.92a3,3,0,0,0,6,0V20.31a7.4,7.4,0,0,1,7.38-7.39H23.45l-1.8,1.81A3,3,0,1,0,25.89,19l9-9Z"></path></g></g></svg></g><path fill="#026783" fill-rule="nonzero" d="M12.84 12.19L12.84 12.19Q12.84 14.62 11.06 16.00Q9.29 17.38 6.53 17.38L6.53 17.38Q4.34 17.38 2.30 16.18L2.30 16.18Q1.30 15.55 0.65 14.41Q0 13.27 0 11.81L0 11.81L3.02 11.66Q3.02 12.96 4.13 13.68Q5.23 14.40 6.58 14.40L6.58 14.40Q9.58 14.40 9.58 12.29L9.58 12.29Q9.58 10.56 7.54 10.25L7.54 10.25L4.75 9.96Q2.66 9.65 1.44 8.47Q0.22 7.30 0.22 5.09Q0.22 2.88 1.97 1.44Q3.72 0 6.40 0Q9.07 0 10.70 1.36Q12.34 2.71 12.34 4.85L12.34 4.85L9.36 4.99Q8.95 2.90 6.55 2.90L6.55 2.90Q5.09 2.90 4.26 3.53Q3.43 4.15 3.43 5.00Q3.43 5.86 4.03 6.35Q4.63 6.84 5.52 6.96L5.52 6.96L8.26 7.25Q12.84 7.87 12.84 12.19ZM25.51 3.53L25.51 17.23L23.18 17.23L22.46 15.60L18.62 17.38Q17.02 17.38 15.83 16.19Q14.64 15 14.64 12.72L14.64 12.72L14.64 3.53L17.76 3.53L17.76 12.05Q17.76 14.33 19.58 14.33L19.58 14.33L22.39 12.82L22.39 3.53L25.51 3.53ZM39.96 10.01L39.96 10.01Q39.96 15.36 37.20 16.85L37.20 16.85Q36.07 17.45 34.44 17.45L34.44 17.45L32.14 15.96L32.14 21.31L29.02 21.31L29.02 3.62L35.16 3.62Q37.94 3.62 38.95 5.20Q39.96 6.77 39.96 10.01ZM36.84 10.49L36.84 10.49Q36.84 6.43 34.25 6.43L34.25 6.43L32.14 6.43L32.14 12.79L34.25 14.16Q35.64 14.16 36.24 13.28Q36.84 12.41 36.84 10.49ZM52.73 11.11L52.73 11.11L44.74 11.11Q44.74 12.98 45.32 13.85Q45.91 14.71 47.69 14.71L47.69 14.71Q48.84 14.71 49.39 13.98Q49.94 13.25 49.94 12.58L49.94 12.58L52.75 12.58Q52.75 15.14 51.37 16.34Q49.99 17.54 47.72 17.54Q45.46 17.54 44.21 16.90L44.21 16.90Q41.64 15.58 41.64 9.89L41.64 9.89Q41.64 6.50 43.10 4.93Q44.57 3.36 47.57 3.36L47.57 3.36Q52.78 3.36 52.78 9.14L52.78 9.14Q52.78 9.77 52.73 11.11ZM44.81 8.98L44.81 8.98L49.94 8.98Q49.94 7.39 49.34 6.67Q48.74 5.95 47.51 5.95Q46.27 5.95 45.54 6.68Q44.81 7.42 44.81 8.98ZM64.97 10.34L68.78 17.23L64.92 17.23L61.58 10.90L59.18 10.90L59.18 17.23L55.85 17.23L55.85 3.82Q55.85 1.90 56.74 1.02Q57.62 0.14 59.71 0.14L59.71 0.14L62.54 0.14Q65.09 0.14 66.59 1.69Q68.09 3.24 68.09 5.62L68.09 5.62Q68.09 7.34 67.19 8.60Q66.29 9.86 64.97 10.34L64.97 10.34ZM62.33 8.11Q63.38 8.11 64.07 7.38Q64.75 6.65 64.75 5.56Q64.75 4.46 64.09 3.79Q63.43 3.12 62.33 3.12L62.33 3.12L60.67 3.12Q59.18 3.12 59.18 4.63L59.18 4.63L59.18 8.11L62.33 8.11ZM79.03 1.58L84.50 17.23L81.02 17.23L80.06 14.28L74.33 14.28L73.39 17.23L69.91 17.23L75.38 1.58Q75.74 0.77 76.19 0.46Q76.63 0.14 77.28 0.14Q77.93 0.14 78.32 0.43Q78.72 0.72 79.03 1.58L79.03 1.58ZM75.17 11.47L79.30 11.47L77.28 4.70L75.17 11.47ZM96.86 3.53L96.86 17.23L94.54 17.23L93.82 15.60L89.98 17.38Q88.37 17.38 87.18 16.19Q85.99 15 85.99 12.72L85.99 12.72L85.99 3.53L89.11 3.53L89.11 12.05Q89.11 14.33 90.94 14.33L90.94 14.33L93.74 12.82L93.74 3.53L96.86 3.53ZM99.55 9.19L99.55 9.19L99.55 7.08Q99.55 3.74 101.30 1.87Q103.06 0 106.15 0Q109.25 0 111.12 1.87L111.12 1.87Q112.44 3.19 112.44 5.83L112.44 5.83L109.32 5.83Q109.32 2.98 106.27 2.98L106.27 2.98Q105.36 2.98 104.72 3.32Q104.09 3.67 103.78 4.13Q103.46 4.58 103.30 5.47Q103.13 6.36 103.10 6.96Q103.08 7.56 103.08 8.57Q103.08 9.58 103.09 9.92Q103.10 10.27 103.16 11.05Q103.22 11.83 103.36 12.17Q103.49 12.50 103.74 13.03Q103.99 13.56 104.38 13.78L104.38 13.78Q105.36 14.40 106.61 14.40L106.61 14.40Q108.70 14.40 109.56 12.62L109.56 12.62L109.56 11.47L107.50 11.47L107.50 8.69L112.42 8.69L112.42 13.85Q111.67 15.60 110.06 16.49Q108.46 17.38 106.42 17.38L106.42 17.38Q102.79 17.38 101.17 15.35Q99.55 13.32 99.55 9.19ZM123.38 1.58L128.86 17.23L125.38 17.23L124.42 14.28L118.68 14.28L117.74 17.23L114.26 17.23L119.74 1.58Q120.10 0.77 120.54 0.46Q120.98 0.14 121.63 0.14Q122.28 0.14 122.68 0.43Q123.07 0.72 123.38 1.58L123.38 1.58ZM119.52 11.47L123.65 11.47L121.63 4.70L119.52 11.47ZM141.19 0.14L144.53 0.14L144.53 15.50Q144.53 16.30 144.05 16.86Q143.57 17.42 142.92 17.42L142.92 17.42Q141.26 17.42 140.21 15.50L140.21 15.50L134.30 6.26L134.30 17.23L130.97 17.23L130.97 0.14L134.18 0.14L141.19 11.33L141.19 0.14Z" transform="translate(0, 48)"></path></svg>